<svg width="91" height="21" viewBox="0 0 91 21" fill="none" xmlns="http://www.w3.org/2000/svg">
<path d="M6.67997 0.199997H0.271973V17H3.82397V11.024H6.67997C9.96797 11.024 12.368 8.72 12.368 5.576C12.368 2.456 9.96797 0.199997 6.67997 0.199997ZM6.67997 7.616H3.82397V3.608H6.67997C7.90397 3.608 8.79197 4.448 8.79197 5.576C8.79197 6.752 7.90397 7.616 6.67997 7.616Z" fill="white"/>
<path d="M17.5527 0.199997H14.1687V17H17.5527V0.199997Z" fill="white"/>
<path d="M28.3126 5.216V6.608C27.7366 5.648 26.2966 4.976 24.8326 4.976C21.7606 4.976 19.3366 7.688 19.3366 11.096C19.3366 14.504 21.7606 17.24 24.8326 17.24C26.3206 17.24 27.7366 16.568 28.3126 15.608V17H31.6966V5.216H28.3126ZM25.5766 14.024C23.9206 14.024 22.6486 12.776 22.6486 11.096C22.6486 9.416 23.9206 8.168 25.5766 8.168C26.7526 8.168 27.8086 8.816 28.3126 9.68V12.56C27.8086 13.4 26.7526 14.024 25.5766 14.024Z" fill="white"/>
<path d="M40.6672 4.976C39.3472 4.976 38.0992 5.6 37.4512 6.608V5.216H34.0672V17H37.4512V9.68C37.9312 8.864 38.8672 8.336 39.8032 8.336C41.1952 8.336 42.0832 9.272 42.0832 10.904V17H45.4672V10.328C45.4672 7.016 43.6432 4.976 40.6672 4.976Z" fill="white"/>
<path d="M59.1764 17H63.0404L56.3444 0.199997H53.4644L46.7924 17H50.5604L51.6404 14.192H58.1204L59.1764 17ZM52.8164 11.144L54.9044 5.768L56.9444 11.144H52.8164Z" fill="white"/>
<path d="M71.2593 4.976C69.7713 4.976 68.3553 5.648 67.7793 6.608V5.216H64.3953V20.888H67.7793V15.608C68.3553 16.568 69.7713 17.24 71.2593 17.24C74.3313 17.24 76.7313 14.504 76.7313 11.096C76.7313 7.688 74.3313 4.976 71.2593 4.976ZM70.5153 14.024C69.3153 14.024 68.2833 13.4 67.7793 12.536V9.656C68.2833 8.816 69.3393 8.168 70.5153 8.168C72.1473 8.168 73.4193 9.44 73.4193 11.096C73.4193 12.776 72.1473 14.024 70.5153 14.024Z" fill="white"/>
<path d="M85.4858 4.976C83.9978 4.976 82.5818 5.648 82.0058 6.608V5.216H78.6218V20.888H82.0058V15.608C82.5818 16.568 83.9978 17.24 85.4858 17.24C88.5578 17.24 90.9578 14.504 90.9578 11.096C90.9578 7.688 88.5578 4.976 85.4858 4.976ZM84.7418 14.024C83.5418 14.024 82.5098 13.4 82.0058 12.536V9.656C82.5098 8.816 83.5658 8.168 84.7418 8.168C86.3738 8.168 87.6458 9.44 87.6458 11.096C87.6458 12.776 86.3738 14.024 84.7418 14.024Z" fill="white"/>
</svg>
